<svg xmlns="http://www.w3.org/2000/svg" xmlns:xlink="http://www.w3.org/1999/xlink" width="1080" zoomAndPan="magnify" viewBox="0 0 810 339.749992" height="453" preserveAspectRatio="xMidYMid meet" version="1.0"><defs><g/></defs><g fill="#000000" fill-opacity="1"><g transform="translate(57.052533, 234.407999)"><g><path d="M 4.515625 -51.140625 L 66.34375 -1.234375 C 67.4375 -0.410156 68.597656 0 69.828125 0 C 71.742188 0 73.25 -0.679688 74.34375 -2.046875 C 75.445312 -3.285156 75.894531 -4.691406 75.6875 -6.265625 C 75.476562 -7.835938 74.757812 -9.101562 73.53125 -10.0625 L 17.25 -55.65625 L 73.53125 -101.46875 C 74.757812 -102.425781 75.476562 -103.691406 75.6875 -105.265625 C 75.894531 -106.835938 75.445312 -108.238281 74.34375 -109.46875 C 73.382812 -110.707031 72.117188 -111.425781 70.546875 -111.625 C 68.972656 -111.832031 67.570312 -111.390625 66.34375 -110.296875 L 4.515625 -59.96875 C 3.148438 -58.875 2.46875 -57.4375 2.46875 -55.65625 C 2.46875 -53.738281 3.148438 -52.234375 4.515625 -51.140625 Z M 4.515625 -51.140625 "/></g></g></g><g fill="#ff0000" fill-opacity="1"><g transform="translate(159.424218, 223.599813)"><g><path d="M 46.75 0 C 45.945312 0 45.414062 -0.351562 45.15625 -1.0625 L 31.609375 -42.09375 C 31.515625 -42.363281 31.335938 -42.5 31.078125 -42.5 L 19.515625 -42.5 C 19.160156 -42.5 18.984375 -42.320312 18.984375 -41.96875 L 18.984375 -1.328125 C 18.984375 -0.441406 18.539062 0 17.65625 0 L 10.890625 0 C 10.003906 0 9.5625 -0.441406 9.5625 -1.328125 L 9.5625 -91.625 C 9.5625 -92.507812 10.003906 -92.953125 10.890625 -92.953125 L 32.796875 -92.953125 C 39.265625 -92.953125 44.488281 -90.582031 48.46875 -85.84375 C 52.457031 -81.113281 54.453125 -74.941406 54.453125 -67.328125 C 54.453125 -61.578125 53.210938 -56.617188 50.734375 -52.453125 C 48.253906 -48.296875 44.890625 -45.375 40.640625 -43.6875 C 40.285156 -43.601562 40.148438 -43.382812 40.234375 -43.03125 L 54.71875 -1.453125 L 54.84375 -0.921875 C 54.84375 -0.304688 54.445312 0 53.65625 0 Z M 19.515625 -84.71875 C 19.160156 -84.71875 18.984375 -84.539062 18.984375 -84.1875 L 18.984375 -50.59375 C 18.984375 -50.238281 19.160156 -50.0625 19.515625 -50.0625 L 31.46875 -50.0625 C 35.539062 -50.0625 38.816406 -51.632812 41.296875 -54.78125 C 43.773438 -57.925781 45.015625 -62.109375 45.015625 -67.328125 C 45.015625 -72.546875 43.773438 -76.75 41.296875 -79.9375 C 38.816406 -83.125 35.539062 -84.71875 31.46875 -84.71875 Z M 19.515625 -84.71875 "/></g></g></g><g fill="#ff0000" fill-opacity="1"><g transform="translate(227.680465, 223.599813)"><g><path d="M 51.65625 -86.046875 C 51.65625 -85.160156 51.210938 -84.71875 50.328125 -84.71875 L 19.515625 -84.71875 C 19.160156 -84.71875 18.984375 -84.539062 18.984375 -84.1875 L 18.984375 -51.265625 C 18.984375 -50.910156 19.160156 -50.734375 19.515625 -50.734375 L 38.90625 -50.734375 C 39.789062 -50.734375 40.234375 -50.289062 40.234375 -49.40625 L 40.234375 -43.6875 C 40.234375 -42.800781 39.789062 -42.359375 38.90625 -42.359375 L 19.515625 -42.359375 C 19.160156 -42.359375 18.984375 -42.179688 18.984375 -41.828125 L 18.984375 -8.765625 C 18.984375 -8.410156 19.160156 -8.234375 19.515625 -8.234375 L 50.328125 -8.234375 C 51.210938 -8.234375 51.65625 -7.789062 51.65625 -6.90625 L 51.65625 -1.328125 C 51.65625 -0.441406 51.210938 0 50.328125 0 L 10.890625 0 C 10.003906 0 9.5625 -0.441406 9.5625 -1.328125 L 9.5625 -91.625 C 9.5625 -92.507812 10.003906 -92.953125 10.890625 -92.953125 L 50.328125 -92.953125 C 51.210938 -92.953125 51.65625 -92.507812 51.65625 -91.625 Z M 51.65625 -86.046875 "/></g></g></g><g fill="#ff0000" fill-opacity="1"><g transform="translate(294.077614, 223.599813)"><g><path d="M 27.625 1.0625 C 21.070312 1.0625 15.757812 -1.101562 11.6875 -5.4375 C 7.613281 -9.78125 5.578125 -15.445312 5.578125 -22.4375 L 5.578125 -25.5 C 5.578125 -26.382812 6.019531 -26.828125 6.90625 -26.828125 L 13.40625 -26.828125 C 14.289062 -26.828125 14.734375 -26.382812 14.734375 -25.5 L 14.734375 -22.84375 C 14.734375 -18.144531 15.925781 -14.359375 18.3125 -11.484375 C 20.707031 -8.609375 23.8125 -7.171875 27.625 -7.171875 C 31.34375 -7.171875 34.441406 -8.539062 36.921875 -11.28125 C 39.398438 -14.03125 40.640625 -17.660156 40.640625 -22.171875 C 40.640625 -25.179688 40.039062 -27.769531 38.84375 -29.9375 C 37.644531 -32.113281 36.09375 -34.019531 34.1875 -35.65625 C 32.289062 -37.289062 29.128906 -39.789062 24.703125 -43.15625 C 20.273438 -46.4375 16.773438 -49.25 14.203125 -51.59375 C 11.640625 -53.9375 9.535156 -56.742188 7.890625 -60.015625 C 6.253906 -63.296875 5.4375 -67.148438 5.4375 -71.578125 C 5.4375 -78.484375 7.425781 -83.945312 11.40625 -87.96875 C 15.394531 -92 20.578125 -94.015625 26.953125 -94.015625 C 33.679688 -94.015625 39.0625 -91.820312 43.09375 -87.4375 C 47.125 -83.0625 49.140625 -77.242188 49.140625 -69.984375 L 49.140625 -66.65625 C 49.140625 -65.78125 48.695312 -65.34375 47.8125 -65.34375 L 41.171875 -65.34375 C 40.285156 -65.34375 39.84375 -65.78125 39.84375 -66.65625 L 39.84375 -70.109375 C 39.84375 -74.804688 38.664062 -78.59375 36.3125 -81.46875 C 33.96875 -84.34375 30.847656 -85.78125 26.953125 -85.78125 C 23.410156 -85.78125 20.488281 -84.519531 18.1875 -82 C 15.882812 -79.476562 14.734375 -75.914062 14.734375 -71.3125 C 14.734375 -68.5625 15.242188 -66.144531 16.265625 -64.0625 C 17.285156 -61.988281 18.8125 -60.019531 20.84375 -58.15625 C 22.882812 -56.300781 25.894531 -53.867188 29.875 -50.859375 C 35.1875 -46.960938 39.148438 -43.796875 41.765625 -41.359375 C 44.378906 -38.929688 46.394531 -36.273438 47.8125 -33.390625 C 49.226562 -30.515625 49.9375 -27.039062 49.9375 -22.96875 C 49.9375 -15.707031 47.851562 -9.882812 43.6875 -5.5 C 39.53125 -1.125 34.175781 1.0625 27.625 1.0625 Z M 27.625 1.0625 "/></g></g></g><g fill="#ff0000" fill-opacity="1"><g transform="translate(358.748468, 223.599813)"><g><path d="M 51.65625 -86.046875 C 51.65625 -85.160156 51.210938 -84.71875 50.328125 -84.71875 L 19.515625 -84.71875 C 19.160156 -84.71875 18.984375 -84.539062 18.984375 -84.1875 L 18.984375 -51.265625 C 18.984375 -50.910156 19.160156 -50.734375 19.515625 -50.734375 L 38.90625 -50.734375 C 39.789062 -50.734375 40.234375 -50.289062 40.234375 -49.40625 L 40.234375 -43.6875 C 40.234375 -42.800781 39.789062 -42.359375 38.90625 -42.359375 L 19.515625 -42.359375 C 19.160156 -42.359375 18.984375 -42.179688 18.984375 -41.828125 L 18.984375 -8.765625 C 18.984375 -8.410156 19.160156 -8.234375 19.515625 -8.234375 L 50.328125 -8.234375 C 51.210938 -8.234375 51.65625 -7.789062 51.65625 -6.90625 L 51.65625 -1.328125 C 51.65625 -0.441406 51.210938 0 50.328125 0 L 10.890625 0 C 10.003906 0 9.5625 -0.441406 9.5625 -1.328125 L 9.5625 -91.625 C 9.5625 -92.507812 10.003906 -92.953125 10.890625 -92.953125 L 50.328125 -92.953125 C 51.210938 -92.953125 51.65625 -92.507812 51.65625 -91.625 Z M 51.65625 -86.046875 "/></g></g></g><g fill="#ff0000" fill-opacity="1"><g transform="translate(425.145605, 223.599813)"><g><path d="M 46.75 -91.625 C 46.75 -92.507812 47.191406 -92.953125 48.078125 -92.953125 L 54.71875 -92.953125 C 55.601562 -92.953125 56.046875 -92.507812 56.046875 -91.625 L 56.046875 -1.328125 C 56.046875 -0.441406 55.601562 0 54.71875 0 L 46.875 0 C 46.164062 0 45.679688 -0.351562 45.421875 -1.0625 L 19.515625 -69.71875 C 19.429688 -69.976562 19.300781 -70.085938 19.125 -70.046875 C 18.945312 -70.003906 18.859375 -69.847656 18.859375 -69.578125 L 18.984375 -1.328125 C 18.984375 -0.441406 18.539062 0 17.65625 0 L 10.890625 0 C 10.003906 0 9.5625 -0.441406 9.5625 -1.328125 L 9.5625 -91.625 C 9.5625 -92.507812 10.003906 -92.953125 10.890625 -92.953125 L 18.59375 -92.953125 C 19.300781 -92.953125 19.785156 -92.597656 20.046875 -91.890625 L 46.078125 -23.109375 C 46.171875 -22.835938 46.304688 -22.722656 46.484375 -22.765625 C 46.660156 -22.816406 46.75 -22.972656 46.75 -23.234375 Z M 46.75 -91.625 "/></g></g></g><g fill="#ff0000" fill-opacity="1"><g transform="translate(500.041508, 223.599813)"><g><path d="M 10.890625 0 C 10.003906 0 9.5625 -0.441406 9.5625 -1.328125 L 9.5625 -91.625 C 9.5625 -92.507812 10.003906 -92.953125 10.890625 -92.953125 L 31.34375 -92.953125 C 38.15625 -92.953125 43.597656 -90.71875 47.671875 -86.25 C 51.742188 -81.78125 53.78125 -75.78125 53.78125 -68.25 L 53.78125 -24.703125 C 53.78125 -17.171875 51.742188 -11.171875 47.671875 -6.703125 C 43.597656 -2.234375 38.15625 0 31.34375 0 Z M 18.984375 -8.765625 C 18.984375 -8.410156 19.160156 -8.234375 19.515625 -8.234375 L 31.203125 -8.359375 C 35.097656 -8.359375 38.21875 -9.863281 40.5625 -12.875 C 42.914062 -15.882812 44.132812 -19.957031 44.21875 -25.09375 L 44.21875 -67.859375 C 44.21875 -73.078125 43.066406 -77.191406 40.765625 -80.203125 C 38.460938 -83.210938 35.273438 -84.71875 31.203125 -84.71875 L 19.515625 -84.71875 C 19.160156 -84.71875 18.984375 -84.539062 18.984375 -84.1875 Z M 18.984375 -8.765625 "/></g></g></g><g fill="#ff0000" fill-opacity="1"><g transform="translate(571.219216, 223.599813)"><g><path d="M 51.65625 -86.046875 C 51.65625 -85.160156 51.210938 -84.71875 50.328125 -84.71875 L 19.515625 -84.71875 C 19.160156 -84.71875 18.984375 -84.539062 18.984375 -84.1875 L 18.984375 -51.265625 C 18.984375 -50.910156 19.160156 -50.734375 19.515625 -50.734375 L 38.90625 -50.734375 C 39.789062 -50.734375 40.234375 -50.289062 40.234375 -49.40625 L 40.234375 -43.6875 C 40.234375 -42.800781 39.789062 -42.359375 38.90625 -42.359375 L 19.515625 -42.359375 C 19.160156 -42.359375 18.984375 -42.179688 18.984375 -41.828125 L 18.984375 -8.765625 C 18.984375 -8.410156 19.160156 -8.234375 19.515625 -8.234375 L 50.328125 -8.234375 C 51.210938 -8.234375 51.65625 -7.789062 51.65625 -6.90625 L 51.65625 -1.328125 C 51.65625 -0.441406 51.210938 0 50.328125 0 L 10.890625 0 C 10.003906 0 9.5625 -0.441406 9.5625 -1.328125 L 9.5625 -91.625 C 9.5625 -92.507812 10.003906 -92.953125 10.890625 -92.953125 L 50.328125 -92.953125 C 51.210938 -92.953125 51.65625 -92.507812 51.65625 -91.625 Z M 51.65625 -86.046875 "/></g></g></g><g fill="#00ffff" fill-opacity="1"><g transform="translate(170.099659, 221.135197)"><g><path d="M 46.75 0 C 45.945312 0 45.414062 -0.351562 45.15625 -1.0625 L 31.609375 -42.09375 C 31.515625 -42.363281 31.335938 -42.5 31.078125 -42.5 L 19.515625 -42.5 C 19.160156 -42.5 18.984375 -42.320312 18.984375 -41.96875 L 18.984375 -1.328125 C 18.984375 -0.441406 18.539062 0 17.65625 0 L 10.890625 0 C 10.003906 0 9.5625 -0.441406 9.5625 -1.328125 L 9.5625 -91.625 C 9.5625 -92.507812 10.003906 -92.953125 10.890625 -92.953125 L 32.796875 -92.953125 C 39.265625 -92.953125 44.488281 -90.582031 48.46875 -85.84375 C 52.457031 -81.113281 54.453125 -74.941406 54.453125 -67.328125 C 54.453125 -61.578125 53.210938 -56.617188 50.734375 -52.453125 C 48.253906 -48.296875 44.890625 -45.375 40.640625 -43.6875 C 40.285156 -43.601562 40.148438 -43.382812 40.234375 -43.03125 L 54.71875 -1.453125 L 54.84375 -0.921875 C 54.84375 -0.304688 54.445312 0 53.65625 0 Z M 19.515625 -84.71875 C 19.160156 -84.71875 18.984375 -84.539062 18.984375 -84.1875 L 18.984375 -50.59375 C 18.984375 -50.238281 19.160156 -50.0625 19.515625 -50.0625 L 31.46875 -50.0625 C 35.539062 -50.0625 38.816406 -51.632812 41.296875 -54.78125 C 43.773438 -57.925781 45.015625 -62.109375 45.015625 -67.328125 C 45.015625 -72.546875 43.773438 -76.75 41.296875 -79.9375 C 38.816406 -83.125 35.539062 -84.71875 31.46875 -84.71875 Z M 19.515625 -84.71875 "/></g></g></g><g fill="#00ffff" fill-opacity="1"><g transform="translate(238.355906, 221.135197)"><g><path d="M 51.65625 -86.046875 C 51.65625 -85.160156 51.210938 -84.71875 50.328125 -84.71875 L 19.515625 -84.71875 C 19.160156 -84.71875 18.984375 -84.539062 18.984375 -84.1875 L 18.984375 -51.265625 C 18.984375 -50.910156 19.160156 -50.734375 19.515625 -50.734375 L 38.90625 -50.734375 C 39.789062 -50.734375 40.234375 -50.289062 40.234375 -49.40625 L 40.234375 -43.6875 C 40.234375 -42.800781 39.789062 -42.359375 38.90625 -42.359375 L 19.515625 -42.359375 C 19.160156 -42.359375 18.984375 -42.179688 18.984375 -41.828125 L 18.984375 -8.765625 C 18.984375 -8.410156 19.160156 -8.234375 19.515625 -8.234375 L 50.328125 -8.234375 C 51.210938 -8.234375 51.65625 -7.789062 51.65625 -6.90625 L 51.65625 -1.328125 C 51.65625 -0.441406 51.210938 0 50.328125 0 L 10.890625 0 C 10.003906 0 9.5625 -0.441406 9.5625 -1.328125 L 9.5625 -91.625 C 9.5625 -92.507812 10.003906 -92.953125 10.890625 -92.953125 L 50.328125 -92.953125 C 51.210938 -92.953125 51.65625 -92.507812 51.65625 -91.625 Z M 51.65625 -86.046875 "/></g></g></g><g fill="#00ffff" fill-opacity="1"><g transform="translate(304.753055, 221.135197)"><g><path d="M 27.625 1.0625 C 21.070312 1.0625 15.757812 -1.101562 11.6875 -5.4375 C 7.613281 -9.78125 5.578125 -15.445312 5.578125 -22.4375 L 5.578125 -25.5 C 5.578125 -26.382812 6.019531 -26.828125 6.90625 -26.828125 L 13.40625 -26.828125 C 14.289062 -26.828125 14.734375 -26.382812 14.734375 -25.5 L 14.734375 -22.84375 C 14.734375 -18.144531 15.925781 -14.359375 18.3125 -11.484375 C 20.707031 -8.609375 23.8125 -7.171875 27.625 -7.171875 C 31.34375 -7.171875 34.441406 -8.539062 36.921875 -11.28125 C 39.398438 -14.03125 40.640625 -17.660156 40.640625 -22.171875 C 40.640625 -25.179688 40.039062 -27.769531 38.84375 -29.9375 C 37.644531 -32.113281 36.09375 -34.019531 34.1875 -35.65625 C 32.289062 -37.289062 29.128906 -39.789062 24.703125 -43.15625 C 20.273438 -46.4375 16.773438 -49.25 14.203125 -51.59375 C 11.640625 -53.9375 9.535156 -56.742188 7.890625 -60.015625 C 6.253906 -63.296875 5.4375 -67.148438 5.4375 -71.578125 C 5.4375 -78.484375 7.425781 -83.945312 11.40625 -87.96875 C 15.394531 -92 20.578125 -94.015625 26.953125 -94.015625 C 33.679688 -94.015625 39.0625 -91.820312 43.09375 -87.4375 C 47.125 -83.0625 49.140625 -77.242188 49.140625 -69.984375 L 49.140625 -66.65625 C 49.140625 -65.78125 48.695312 -65.34375 47.8125 -65.34375 L 41.171875 -65.34375 C 40.285156 -65.34375 39.84375 -65.78125 39.84375 -66.65625 L 39.84375 -70.109375 C 39.84375 -74.804688 38.664062 -78.59375 36.3125 -81.46875 C 33.96875 -84.34375 30.847656 -85.78125 26.953125 -85.78125 C 23.410156 -85.78125 20.488281 -84.519531 18.1875 -82 C 15.882812 -79.476562 14.734375 -75.914062 14.734375 -71.3125 C 14.734375 -68.5625 15.242188 -66.144531 16.265625 -64.0625 C 17.285156 -61.988281 18.8125 -60.019531 20.84375 -58.15625 C 22.882812 -56.300781 25.894531 -53.867188 29.875 -50.859375 C 35.1875 -46.960938 39.148438 -43.796875 41.765625 -41.359375 C 44.378906 -38.929688 46.394531 -36.273438 47.8125 -33.390625 C 49.226562 -30.515625 49.9375 -27.039062 49.9375 -22.96875 C 49.9375 -15.707031 47.851562 -9.882812 43.6875 -5.5 C 39.53125 -1.125 34.175781 1.0625 27.625 1.0625 Z M 27.625 1.0625 "/></g></g></g><g fill="#00ffff" fill-opacity="1"><g transform="translate(369.423908, 221.135197)"><g><path d="M 51.65625 -86.046875 C 51.65625 -85.160156 51.210938 -84.71875 50.328125 -84.71875 L 19.515625 -84.71875 C 19.160156 -84.71875 18.984375 -84.539062 18.984375 -84.1875 L 18.984375 -51.265625 C 18.984375 -50.910156 19.160156 -50.734375 19.515625 -50.734375 L 38.90625 -50.734375 C 39.789062 -50.734375 40.234375 -50.289062 40.234375 -49.40625 L 40.234375 -43.6875 C 40.234375 -42.800781 39.789062 -42.359375 38.90625 -42.359375 L 19.515625 -42.359375 C 19.160156 -42.359375 18.984375 -42.179688 18.984375 -41.828125 L 18.984375 -8.765625 C 18.984375 -8.410156 19.160156 -8.234375 19.515625 -8.234375 L 50.328125 -8.234375 C 51.210938 -8.234375 51.65625 -7.789062 51.65625 -6.90625 L 51.65625 -1.328125 C 51.65625 -0.441406 51.210938 0 50.328125 0 L 10.890625 0 C 10.003906 0 9.5625 -0.441406 9.5625 -1.328125 L 9.5625 -91.625 C 9.5625 -92.507812 10.003906 -92.953125 10.890625 -92.953125 L 50.328125 -92.953125 C 51.210938 -92.953125 51.65625 -92.507812 51.65625 -91.625 Z M 51.65625 -86.046875 "/></g></g></g><g fill="#00ffff" fill-opacity="1"><g transform="translate(435.821046, 221.135197)"><g><path d="M 46.75 -91.625 C 46.75 -92.507812 47.191406 -92.953125 48.078125 -92.953125 L 54.71875 -92.953125 C 55.601562 -92.953125 56.046875 -92.507812 56.046875 -91.625 L 56.046875 -1.328125 C 56.046875 -0.441406 55.601562 0 54.71875 0 L 46.875 0 C 46.164062 0 45.679688 -0.351562 45.421875 -1.0625 L 19.515625 -69.71875 C 19.429688 -69.976562 19.300781 -70.085938 19.125 -70.046875 C 18.945312 -70.003906 18.859375 -69.847656 18.859375 -69.578125 L 18.984375 -1.328125 C 18.984375 -0.441406 18.539062 0 17.65625 0 L 10.890625 0 C 10.003906 0 9.5625 -0.441406 9.5625 -1.328125 L 9.5625 -91.625 C 9.5625 -92.507812 10.003906 -92.953125 10.890625 -92.953125 L 18.59375 -92.953125 C 19.300781 -92.953125 19.785156 -92.597656 20.046875 -91.890625 L 46.078125 -23.109375 C 46.171875 -22.835938 46.304688 -22.722656 46.484375 -22.765625 C 46.660156 -22.816406 46.75 -22.972656 46.75 -23.234375 Z M 46.75 -91.625 "/></g></g></g><g fill="#00ffff" fill-opacity="1"><g transform="translate(510.716949, 221.135197)"><g><path d="M 10.890625 0 C 10.003906 0 9.5625 -0.441406 9.5625 -1.328125 L 9.5625 -91.625 C 9.5625 -92.507812 10.003906 -92.953125 10.890625 -92.953125 L 31.34375 -92.953125 C 38.15625 -92.953125 43.597656 -90.71875 47.671875 -86.25 C 51.742188 -81.78125 53.78125 -75.78125 53.78125 -68.25 L 53.78125 -24.703125 C 53.78125 -17.171875 51.742188 -11.171875 47.671875 -6.703125 C 43.597656 -2.234375 38.15625 0 31.34375 0 Z M 18.984375 -8.765625 C 18.984375 -8.410156 19.160156 -8.234375 19.515625 -8.234375 L 31.203125 -8.359375 C 35.097656 -8.359375 38.21875 -9.863281 40.5625 -12.875 C 42.914062 -15.882812 44.132812 -19.957031 44.21875 -25.09375 L 44.21875 -67.859375 C 44.21875 -73.078125 43.066406 -77.191406 40.765625 -80.203125 C 38.460938 -83.210938 35.273438 -84.71875 31.203125 -84.71875 L 19.515625 -84.71875 C 19.160156 -84.71875 18.984375 -84.539062 18.984375 -84.1875 Z M 18.984375 -8.765625 "/></g></g></g><g fill="#00ffff" fill-opacity="1"><g transform="translate(581.894657, 221.135197)"><g><path d="M 51.65625 -86.046875 C 51.65625 -85.160156 51.210938 -84.71875 50.328125 -84.71875 L 19.515625 -84.71875 C 19.160156 -84.71875 18.984375 -84.539062 18.984375 -84.1875 L 18.984375 -51.265625 C 18.984375 -50.910156 19.160156 -50.734375 19.515625 -50.734375 L 38.90625 -50.734375 C 39.789062 -50.734375 40.234375 -50.289062 40.234375 -49.40625 L 40.234375 -43.6875 C 40.234375 -42.800781 39.789062 -42.359375 38.90625 -42.359375 L 19.515625 -42.359375 C 19.160156 -42.359375 18.984375 -42.179688 18.984375 -41.828125 L 18.984375 -8.765625 C 18.984375 -8.410156 19.160156 -8.234375 19.515625 -8.234375 L 50.328125 -8.234375 C 51.210938 -8.234375 51.65625 -7.789062 51.65625 -6.90625 L 51.65625 -1.328125 C 51.65625 -0.441406 51.210938 0 50.328125 0 L 10.890625 0 C 10.003906 0 9.5625 -0.441406 9.5625 -1.328125 L 9.5625 -91.625 C 9.5625 -92.507812 10.003906 -92.953125 10.890625 -92.953125 L 50.328125 -92.953125 C 51.210938 -92.953125 51.65625 -92.507812 51.65625 -91.625 Z M 51.65625 -86.046875 "/></g></g></g><g fill="#000000" fill-opacity="1"><g transform="translate(164.761939, 222.367504)"><g><path d="M 46.75 0 C 45.945312 0 45.414062 -0.351562 45.15625 -1.0625 L 31.609375 -42.09375 C 31.515625 -42.363281 31.335938 -42.5 31.078125 -42.5 L 19.515625 -42.5 C 19.160156 -42.5 18.984375 -42.320312 18.984375 -41.96875 L 18.984375 -1.328125 C 18.984375 -0.441406 18.539062 0 17.65625 0 L 10.890625 0 C 10.003906 0 9.5625 -0.441406 9.5625 -1.328125 L 9.5625 -91.625 C 9.5625 -92.507812 10.003906 -92.953125 10.890625 -92.953125 L 32.796875 -92.953125 C 39.265625 -92.953125 44.488281 -90.582031 48.46875 -85.84375 C 52.457031 -81.113281 54.453125 -74.941406 54.453125 -67.328125 C 54.453125 -61.578125 53.210938 -56.617188 50.734375 -52.453125 C 48.253906 -48.296875 44.890625 -45.375 40.640625 -43.6875 C 40.285156 -43.601562 40.148438 -43.382812 40.234375 -43.03125 L 54.71875 -1.453125 L 54.84375 -0.921875 C 54.84375 -0.304688 54.445312 0 53.65625 0 Z M 19.515625 -84.71875 C 19.160156 -84.71875 18.984375 -84.539062 18.984375 -84.1875 L 18.984375 -50.59375 C 18.984375 -50.238281 19.160156 -50.0625 19.515625 -50.0625 L 31.46875 -50.0625 C 35.539062 -50.0625 38.816406 -51.632812 41.296875 -54.78125 C 43.773438 -57.925781 45.015625 -62.109375 45.015625 -67.328125 C 45.015625 -72.546875 43.773438 -76.75 41.296875 -79.9375 C 38.816406 -83.125 35.539062 -84.71875 31.46875 -84.71875 Z M 19.515625 -84.71875 "/></g></g></g><g fill="#000000" fill-opacity="1"><g transform="translate(233.018185, 222.367504)"><g><path d="M 51.65625 -86.046875 C 51.65625 -85.160156 51.210938 -84.71875 50.328125 -84.71875 L 19.515625 -84.71875 C 19.160156 -84.71875 18.984375 -84.539062 18.984375 -84.1875 L 18.984375 -51.265625 C 18.984375 -50.910156 19.160156 -50.734375 19.515625 -50.734375 L 38.90625 -50.734375 C 39.789062 -50.734375 40.234375 -50.289062 40.234375 -49.40625 L 40.234375 -43.6875 C 40.234375 -42.800781 39.789062 -42.359375 38.90625 -42.359375 L 19.515625 -42.359375 C 19.160156 -42.359375 18.984375 -42.179688 18.984375 -41.828125 L 18.984375 -8.765625 C 18.984375 -8.410156 19.160156 -8.234375 19.515625 -8.234375 L 50.328125 -8.234375 C 51.210938 -8.234375 51.65625 -7.789062 51.65625 -6.90625 L 51.65625 -1.328125 C 51.65625 -0.441406 51.210938 0 50.328125 0 L 10.890625 0 C 10.003906 0 9.5625 -0.441406 9.5625 -1.328125 L 9.5625 -91.625 C 9.5625 -92.507812 10.003906 -92.953125 10.890625 -92.953125 L 50.328125 -92.953125 C 51.210938 -92.953125 51.65625 -92.507812 51.65625 -91.625 Z M 51.65625 -86.046875 "/></g></g></g><g fill="#000000" fill-opacity="1"><g transform="translate(299.415334, 222.367504)"><g><path d="M 27.625 1.0625 C 21.070312 1.0625 15.757812 -1.101562 11.6875 -5.4375 C 7.613281 -9.78125 5.578125 -15.445312 5.578125 -22.4375 L 5.578125 -25.5 C 5.578125 -26.382812 6.019531 -26.828125 6.90625 -26.828125 L 13.40625 -26.828125 C 14.289062 -26.828125 14.734375 -26.382812 14.734375 -25.5 L 14.734375 -22.84375 C 14.734375 -18.144531 15.925781 -14.359375 18.3125 -11.484375 C 20.707031 -8.609375 23.8125 -7.171875 27.625 -7.171875 C 31.34375 -7.171875 34.441406 -8.539062 36.921875 -11.28125 C 39.398438 -14.03125 40.640625 -17.660156 40.640625 -22.171875 C 40.640625 -25.179688 40.039062 -27.769531 38.84375 -29.9375 C 37.644531 -32.113281 36.09375 -34.019531 34.1875 -35.65625 C 32.289062 -37.289062 29.128906 -39.789062 24.703125 -43.15625 C 20.273438 -46.4375 16.773438 -49.25 14.203125 -51.59375 C 11.640625 -53.9375 9.535156 -56.742188 7.890625 -60.015625 C 6.253906 -63.296875 5.4375 -67.148438 5.4375 -71.578125 C 5.4375 -78.484375 7.425781 -83.945312 11.40625 -87.96875 C 15.394531 -92 20.578125 -94.015625 26.953125 -94.015625 C 33.679688 -94.015625 39.0625 -91.820312 43.09375 -87.4375 C 47.125 -83.0625 49.140625 -77.242188 49.140625 -69.984375 L 49.140625 -66.65625 C 49.140625 -65.78125 48.695312 -65.34375 47.8125 -65.34375 L 41.171875 -65.34375 C 40.285156 -65.34375 39.84375 -65.78125 39.84375 -66.65625 L 39.84375 -70.109375 C 39.84375 -74.804688 38.664062 -78.59375 36.3125 -81.46875 C 33.96875 -84.34375 30.847656 -85.78125 26.953125 -85.78125 C 23.410156 -85.78125 20.488281 -84.519531 18.1875 -82 C 15.882812 -79.476562 14.734375 -75.914062 14.734375 -71.3125 C 14.734375 -68.5625 15.242188 -66.144531 16.265625 -64.0625 C 17.285156 -61.988281 18.8125 -60.019531 20.84375 -58.15625 C 22.882812 -56.300781 25.894531 -53.867188 29.875 -50.859375 C 35.1875 -46.960938 39.148438 -43.796875 41.765625 -41.359375 C 44.378906 -38.929688 46.394531 -36.273438 47.8125 -33.390625 C 49.226562 -30.515625 49.9375 -27.039062 49.9375 -22.96875 C 49.9375 -15.707031 47.851562 -9.882812 43.6875 -5.5 C 39.53125 -1.125 34.175781 1.0625 27.625 1.0625 Z M 27.625 1.0625 "/></g></g></g><g fill="#000000" fill-opacity="1"><g transform="translate(364.086188, 222.367504)"><g><path d="M 51.65625 -86.046875 C 51.65625 -85.160156 51.210938 -84.71875 50.328125 -84.71875 L 19.515625 -84.71875 C 19.160156 -84.71875 18.984375 -84.539062 18.984375 -84.1875 L 18.984375 -51.265625 C 18.984375 -50.910156 19.160156 -50.734375 19.515625 -50.734375 L 38.90625 -50.734375 C 39.789062 -50.734375 40.234375 -50.289062 40.234375 -49.40625 L 40.234375 -43.6875 C 40.234375 -42.800781 39.789062 -42.359375 38.90625 -42.359375 L 19.515625 -42.359375 C 19.160156 -42.359375 18.984375 -42.179688 18.984375 -41.828125 L 18.984375 -8.765625 C 18.984375 -8.410156 19.160156 -8.234375 19.515625 -8.234375 L 50.328125 -8.234375 C 51.210938 -8.234375 51.65625 -7.789062 51.65625 -6.90625 L 51.65625 -1.328125 C 51.65625 -0.441406 51.210938 0 50.328125 0 L 10.890625 0 C 10.003906 0 9.5625 -0.441406 9.5625 -1.328125 L 9.5625 -91.625 C 9.5625 -92.507812 10.003906 -92.953125 10.890625 -92.953125 L 50.328125 -92.953125 C 51.210938 -92.953125 51.65625 -92.507812 51.65625 -91.625 Z M 51.65625 -86.046875 "/></g></g></g><g fill="#000000" fill-opacity="1"><g transform="translate(430.483326, 222.367504)"><g><path d="M 46.75 -91.625 C 46.75 -92.507812 47.191406 -92.953125 48.078125 -92.953125 L 54.71875 -92.953125 C 55.601562 -92.953125 56.046875 -92.507812 56.046875 -91.625 L 56.046875 -1.328125 C 56.046875 -0.441406 55.601562 0 54.71875 0 L 46.875 0 C 46.164062 0 45.679688 -0.351562 45.421875 -1.0625 L 19.515625 -69.71875 C 19.429688 -69.976562 19.300781 -70.085938 19.125 -70.046875 C 18.945312 -70.003906 18.859375 -69.847656 18.859375 -69.578125 L 18.984375 -1.328125 C 18.984375 -0.441406 18.539062 0 17.65625 0 L 10.890625 0 C 10.003906 0 9.5625 -0.441406 9.5625 -1.328125 L 9.5625 -91.625 C 9.5625 -92.507812 10.003906 -92.953125 10.890625 -92.953125 L 18.59375 -92.953125 C 19.300781 -92.953125 19.785156 -92.597656 20.046875 -91.890625 L 46.078125 -23.109375 C 46.171875 -22.835938 46.304688 -22.722656 46.484375 -22.765625 C 46.660156 -22.816406 46.75 -22.972656 46.75 -23.234375 Z M 46.75 -91.625 "/></g></g></g><g fill="#000000" fill-opacity="1"><g transform="translate(505.379229, 222.367504)"><g><path d="M 10.890625 0 C 10.003906 0 9.5625 -0.441406 9.5625 -1.328125 L 9.5625 -91.625 C 9.5625 -92.507812 10.003906 -92.953125 10.890625 -92.953125 L 31.34375 -92.953125 C 38.15625 -92.953125 43.597656 -90.71875 47.671875 -86.25 C 51.742188 -81.78125 53.78125 -75.78125 53.78125 -68.25 L 53.78125 -24.703125 C 53.78125 -17.171875 51.742188 -11.171875 47.671875 -6.703125 C 43.597656 -2.234375 38.15625 0 31.34375 0 Z M 18.984375 -8.765625 C 18.984375 -8.410156 19.160156 -8.234375 19.515625 -8.234375 L 31.203125 -8.359375 C 35.097656 -8.359375 38.21875 -9.863281 40.5625 -12.875 C 42.914062 -15.882812 44.132812 -19.957031 44.21875 -25.09375 L 44.21875 -67.859375 C 44.21875 -73.078125 43.066406 -77.191406 40.765625 -80.203125 C 38.460938 -83.210938 35.273438 -84.71875 31.203125 -84.71875 L 19.515625 -84.71875 C 19.160156 -84.71875 18.984375 -84.539062 18.984375 -84.1875 Z M 18.984375 -8.765625 "/></g></g></g><g fill="#000000" fill-opacity="1"><g transform="translate(576.556937, 222.367504)"><g><path d="M 51.65625 -86.046875 C 51.65625 -85.160156 51.210938 -84.71875 50.328125 -84.71875 L 19.515625 -84.71875 C 19.160156 -84.71875 18.984375 -84.539062 18.984375 -84.1875 L 18.984375 -51.265625 C 18.984375 -50.910156 19.160156 -50.734375 19.515625 -50.734375 L 38.90625 -50.734375 C 39.789062 -50.734375 40.234375 -50.289062 40.234375 -49.40625 L 40.234375 -43.6875 C 40.234375 -42.800781 39.789062 -42.359375 38.90625 -42.359375 L 19.515625 -42.359375 C 19.160156 -42.359375 18.984375 -42.179688 18.984375 -41.828125 L 18.984375 -8.765625 C 18.984375 -8.410156 19.160156 -8.234375 19.515625 -8.234375 L 50.328125 -8.234375 C 51.210938 -8.234375 51.65625 -7.789062 51.65625 -6.90625 L 51.65625 -1.328125 C 51.65625 -0.441406 51.210938 0 50.328125 0 L 10.890625 0 C 10.003906 0 9.5625 -0.441406 9.5625 -1.328125 L 9.5625 -91.625 C 9.5625 -92.507812 10.003906 -92.953125 10.890625 -92.953125 L 50.328125 -92.953125 C 51.210938 -92.953125 51.65625 -92.507812 51.65625 -91.625 Z M 51.65625 -86.046875 "/></g></g></g><g fill="#000000" fill-opacity="1"><g transform="translate(657.150063, 235.701547)"><g><path d="M 54.625 -145.203125 L 0.40625 -6.359375 C -0.132812 -5.128906 -0.132812 -3.929688 0.40625 -2.765625 C 0.957031 -1.609375 1.78125 -0.820312 2.875 -0.40625 C 3.28125 -0.132812 3.828125 0 4.515625 0 C 6.703125 0 8.140625 -0.957031 8.828125 -2.875 L 63.046875 -141.703125 C 63.597656 -142.941406 63.597656 -144.140625 63.046875 -145.296875 C 62.503906 -146.460938 61.679688 -147.253906 60.578125 -147.671875 C 59.347656 -148.210938 58.148438 -148.207031 56.984375 -147.65625 C 55.828125 -147.113281 55.039062 -146.296875 54.625 -145.203125 Z M 54.625 -145.203125 "/></g></g></g><g fill="#000000" fill-opacity="1"><g transform="translate(720.61204, 235.701547)"><g><path d="M 73.53125 -51.140625 L 11.703125 -1.234375 C 10.742188 -0.410156 9.582031 0 8.21875 0 C 6.570312 0 5.066406 -0.679688 3.703125 -2.046875 C 2.742188 -3.285156 2.332031 -4.691406 2.46875 -6.265625 C 2.601562 -7.835938 3.285156 -9.101562 4.515625 -10.0625 L 60.796875 -55.65625 L 4.515625 -101.453125 C 3.285156 -102.410156 2.601562 -103.675781 2.46875 -105.25 C 2.332031 -106.820312 2.742188 -108.226562 3.703125 -109.46875 C 4.796875 -110.695312 6.09375 -111.410156 7.59375 -111.609375 C 9.101562 -111.816406 10.472656 -111.375 11.703125 -110.28125 L 73.53125 -59.96875 C 74.894531 -58.875 75.578125 -57.4375 75.578125 -55.65625 C 75.578125 -53.738281 74.894531 -52.234375 73.53125 -51.140625 Z M 73.53125 -51.140625 "/></g></g></g></svg>